<svg width="228" height="38" viewBox="0 0 228 38" fill="none" xmlns="http://www.w3.org/2000/svg">
<path fill-rule="evenodd" clip-rule="evenodd" d="M0.0745455 13.5419C-0.0875728 13.9113 0.0233514 14.3164 0.323691 14.4469C0.622325 14.5774 0.997751 14.3859 1.15986 14.0164C1.27205 13.7842 1.25856 13.5113 1.12403 13.2911L4.96361 6.55307C5.10397 6.57015 5.24639 6.55026 5.37659 6.49545L7.91923 9.06799C7.81895 9.51468 8.05048 9.96953 8.47215 10.1543V26.7518C8.31488 26.8212 8.17933 26.9312 8.07961 27.0705L1.81857 23.7404L1.79809 23.6557C1.68375 23.2693 1.33734 23.0354 1.02505 23.1372C0.714475 23.2354 0.554065 23.6303 0.670111 24.0183C0.77591 24.3725 1.07284 24.5963 1.36294 24.5573L4.40559 30.4547L4.39194 30.4717C4.1701 30.7936 4.31003 31.2783 4.69911 31.5562C4.92268 31.7255 5.21279 31.7818 5.4841 31.7088L7.55916 33.095C7.6005 33.3986 7.78056 33.6663 8.0472 33.8203C8.28892 33.9686 8.58376 34.0045 8.8544 33.9186L13.6769 36.6504C13.7435 36.9453 14.025 37.2012 14.4005 37.2656C14.8134 37.3385 15.1957 37.1588 15.3305 36.8538L25.7707 34.9693C26.0064 35.1278 26.3033 35.1673 26.5728 35.0761C27.0011 34.9422 27.2741 34.5643 27.211 34.2084L34.4669 26.6587C34.7911 26.6756 35.1205 26.4265 35.257 26.0316C35.3691 25.7389 35.3241 25.4097 35.1376 25.1572L35.5454 15.5196C35.7621 15.3434 35.8782 15.0129 35.8219 14.6621C35.7536 14.2723 35.4925 13.9774 35.1905 13.9181L32.426 7.55122C32.5386 7.25977 32.4328 6.87508 32.1393 6.6107C31.9312 6.41101 31.6391 6.32278 31.3543 6.37343L24.6325 1.5572C24.6496 1.20639 24.3526 0.865768 23.9226 0.772559C23.655 0.707381 23.3721 0.765938 23.153 0.931857L14.4533 0.326864C14.2861 0.0811371 13.938 -0.051049 13.5728 0.0184318C13.257 0.0653109 12.9903 0.275886 12.8731 0.570894L5.46873 4.97365C5.19461 4.95598 4.92661 5.05958 4.73664 5.25665C4.49712 5.47523 4.39195 5.80338 4.46019 6.11925L0.663276 13.0725C0.397059 13.1141 0.173008 13.2928 0.0745455 13.5419ZM0.417537 14.0046C0.298082 13.952 0.252007 13.791 0.316852 13.6419C0.383405 13.4945 0.531867 13.4182 0.651326 13.469C0.772483 13.5233 0.816852 13.6843 0.752004 13.8317C0.687162 13.9791 0.536988 14.0554 0.417537 14.0046ZM4.86459 5.52103C4.72808 5.65658 4.70418 5.85658 4.81169 5.96844C4.9192 6.08026 5.11716 6.06162 5.25537 5.92774C5.39191 5.79219 5.4158 5.59053 5.3083 5.47866C5.20079 5.3668 5.00111 5.38548 4.86459 5.52103ZM5.91933 5.98536L5.93813 5.94471L12.7179 3.61623C12.8033 3.71283 12.9159 3.79078 13.0422 3.84502L13.3613 8.43251C13.1904 8.52959 13.0534 8.67623 12.9688 8.85275H9.69576C9.54235 8.52288 9.21016 8.31127 8.84422 8.31049C8.67226 8.31081 8.50378 8.35896 8.35789 8.44943L5.91933 5.98536ZM13.0506 1.22335L7.13427 4.74148L12.5267 2.8909C12.5992 2.61943 12.7976 2.3985 13.0609 2.29607L13.2247 1.34028C13.1614 1.30959 13.1028 1.27023 13.0506 1.22335ZM13.3169 0.653931C13.2896 0.498022 13.4176 0.345502 13.6053 0.311609C13.793 0.276021 13.9688 0.372619 13.9978 0.526829C14.0251 0.681047 13.8954 0.833567 13.7094 0.86746C13.5217 0.904742 13.3442 0.806452 13.3169 0.653931ZM14.4652 0.986103C14.352 1.17151 14.175 1.30995 13.9669 1.37588L13.8117 2.28253C13.95 2.33363 14.0745 2.41602 14.1752 2.52317L20.9635 1.43519L14.4652 0.986103ZM23.0233 1.86562L20.8151 8.33418C20.7103 8.35844 20.6105 8.40029 20.5198 8.45791L14.4636 3.23831L23.0233 1.86562ZM23.6564 2.30964L21.5506 8.47655C21.6893 8.57212 21.8 8.70252 21.8714 8.85447H25.7212C25.7449 8.80756 25.7717 8.76228 25.8014 8.71886L23.6564 2.30964ZM23.5216 1.26741C23.5523 1.11489 23.7298 1.02337 23.9175 1.06405C24.1052 1.10472 24.2298 1.26062 24.1974 1.41654C24.1649 1.56906 23.9875 1.65887 23.7998 1.6199C23.6121 1.57753 23.4875 1.41992 23.5216 1.26741ZM30.8919 6.84625L24.3987 2.19269L26.4499 8.32059C26.75 8.28181 27.0505 8.38904 27.2571 8.60872L30.8799 7.04114C30.8747 6.97602 30.8782 6.91048 30.8902 6.84625H30.8919ZM31.2433 7.70208C31.3208 7.76621 31.407 7.81925 31.4993 7.8597L33.1085 15.7365L27.3474 9.82383C27.4515 9.67251 27.5107 9.49516 27.518 9.31203L31.2433 7.70208ZM31.5386 6.82761C31.4362 6.94286 31.4703 7.14285 31.612 7.27164C31.7553 7.3987 31.9532 7.40891 32.0557 7.29194C32.158 7.17336 32.1273 6.97336 31.984 6.84625C31.8406 6.71918 31.641 6.71069 31.5403 6.82761H31.5386ZM32.6103 9.60687L34.5932 14.1706C34.4251 14.4141 34.3774 14.7202 34.4635 15.0027L33.9396 16.1111L32.6103 9.60687ZM34.641 21.5255L34.88 15.845L34.4056 16.8448C34.565 17.1452 34.55 17.5074 34.3663 17.7938L34.641 21.5255ZM34.8321 25.5927C34.9771 25.6453 35.0471 25.8351 34.9823 26.0181H34.9839C34.9191 26.2011 34.7519 26.3061 34.6051 26.2553C34.4583 26.2028 34.3918 26.013 34.455 25.83C34.5181 25.6469 34.6853 25.5419 34.8321 25.5927ZM33.5419 17.2854C33.5419 17.4786 33.6835 17.6345 33.8542 17.6345C34.0265 17.6345 34.1682 17.4786 34.1682 17.2854C34.1682 17.0906 34.0265 16.9346 33.8542 16.9346C33.6835 16.9346 33.5419 17.0906 33.5419 17.2854ZM34.1683 25.1809C34.0624 25.2902 33.9825 25.4217 33.9345 25.5656C33.9123 25.6312 33.8963 25.6987 33.8867 25.7673L30.6359 27.9585L33.6734 18.4192L34.1683 25.1809ZM28.7706 31.641L32.9242 27.3196L30.7963 28.7533C30.7676 28.9463 30.6835 29.1269 30.5539 29.2735C30.4205 29.431 30.24 29.542 30.0386 29.5904L28.7706 31.641ZM29.3388 29.3108L26.6307 33.6865V33.6848C26.4748 33.6593 26.3152 33.6709 26.1648 33.7186C25.9511 33.7818 25.7656 33.9158 25.6392 34.0983L20.0624 32.8713C20.0376 32.7118 19.9731 32.5609 19.8747 32.4324L21.6989 28.5787C21.9917 28.5174 22.2383 28.3228 22.3645 28.0534H25.7211C25.8493 28.3357 26.1111 28.5355 26.4188 28.586C26.7265 28.6364 27.0391 28.5306 27.2518 28.3042L29.2569 28.916C29.2449 29.0527 29.2734 29.1899 29.3388 29.3108ZM26.5318 34.7931C26.7144 34.7372 26.8253 34.5694 26.781 34.4202C26.7348 34.2694 26.5506 34.1948 26.3697 34.2508C26.1871 34.3067 26.0745 34.4745 26.1205 34.6236C26.1649 34.7744 26.3475 34.8507 26.5318 34.7931ZM24.286 34.566L15.8697 36.0878L18.8168 33.9254C19.206 34.0622 19.6395 33.9292 19.8834 33.5983L24.286 34.566ZM14.8372 35.9234L17.9754 33.6186L9.36623 33.3814L9.34748 33.4458L13.9106 36.0285C14.1206 35.8756 14.3856 35.8172 14.641 35.8675C14.7081 35.8795 14.7739 35.8982 14.8372 35.9234ZM14.8202 36.7521C14.7946 36.908 14.6189 37.0063 14.4311 36.9724C14.2434 36.9385 14.112 36.786 14.1393 36.6335C14.1666 36.4776 14.3407 36.3793 14.5284 36.4132C14.7178 36.447 14.8458 36.5996 14.8202 36.7521ZM8.91402 32.3544C9.03051 32.4259 9.13194 32.5191 9.21265 32.629L18.1939 32.8764C18.2007 32.8234 18.2127 32.7712 18.2297 32.7205L14.6051 28.5703C14.1739 28.6633 13.7351 28.4482 13.5471 28.0517H9.69561C9.60155 28.2506 9.44117 28.411 9.24169 28.5058L8.91402 32.3544ZM9.22143 27.6348C9.22143 27.8467 9.05248 28.0195 8.84598 28.0195H8.84427C8.63611 28.0195 8.46545 27.8467 8.46545 27.6348C8.46545 27.423 8.63611 27.2518 8.84598 27.2518C9.05248 27.2518 9.22143 27.423 9.22143 27.6348ZM8.67693 33.4424C8.77078 33.2797 8.70082 33.0594 8.51993 32.9544C8.34075 32.8459 8.11722 32.8917 8.02503 33.056C7.92947 33.2187 7.99942 33.4373 8.18032 33.5441C8.36121 33.6509 8.58308 33.6051 8.67693 33.4424ZM8.18551 32.2036L1.99612 24.4302L7.90054 27.7144C7.92884 28.0759 8.15991 28.3906 8.4978 28.5279L8.18551 32.2036ZM5.90909 31.2038L7.29818 32.129L2.81525 26.3333L4.99613 30.209C5.17846 30.2231 5.35327 30.287 5.50124 30.3937C5.79136 30.5988 5.94493 30.9191 5.91081 31.2038H5.90909ZM5.13777 30.8665C5.29479 30.9784 5.34938 31.1716 5.26062 31.3004L5.25896 31.2987C5.1719 31.4292 4.97395 31.4427 4.81524 31.3326C4.65996 31.2224 4.60535 31.0275 4.69409 30.9004C4.78283 30.77 4.98248 30.7564 5.13777 30.8665ZM14.7656 27.6348C14.7656 27.428 14.6035 27.2603 14.397 27.2603C14.1911 27.2631 14.0258 27.4302 14.0267 27.6348C14.0249 27.84 14.1904 28.0082 14.397 28.011C14.6037 28.0082 14.7693 27.84 14.7673 27.6348H14.7656ZM14.8319 19.4325C14.7608 19.5044 14.6639 19.5452 14.5626 19.5461C14.4613 19.5452 14.3646 19.5043 14.2939 19.4324C14.2231 19.3606 14.1841 19.2637 14.1854 19.1631C14.1841 19.0625 14.223 18.9653 14.2938 18.8932C14.3645 18.821 14.4612 18.7798 14.5626 18.7785C14.7708 18.7785 14.9414 18.9513 14.9414 19.1631C14.9423 19.2638 14.9029 19.3607 14.8319 19.4325ZM19.5062 33.1442C19.5062 32.9323 19.3373 32.7612 19.129 32.7612C19.0277 32.762 18.9308 32.8029 18.8598 32.8747C18.7887 32.9466 18.7493 33.0435 18.7502 33.1442C18.7502 33.356 18.9208 33.5289 19.129 33.5289C19.2304 33.5275 19.3271 33.4862 19.3979 33.4141C19.4685 33.3419 19.5076 33.2448 19.5062 33.1442ZM20.9601 28.4126L19.2297 32.0647C19.0551 32.0471 18.879 32.0781 18.7212 32.1545L15.2058 28.1313C15.3515 27.8947 15.3868 27.607 15.3026 27.3425C15.2186 27.078 15.0233 26.8626 14.7673 26.7519V20.0986C14.8233 20.0866 14.8781 20.0696 14.9311 20.0478L20.699 27.1484C20.4466 27.5739 20.5594 28.1202 20.9601 28.4126ZM21.8919 27.6348C21.8919 27.423 21.7213 27.2518 21.5131 27.2518C21.3066 27.2518 21.136 27.423 21.136 27.6348C21.136 27.8466 21.3066 28.0195 21.5131 28.0195C21.7245 28.0167 21.8938 27.8447 21.8919 27.6348ZM26.5744 27.2603C26.7792 27.2603 26.9431 27.428 26.9431 27.6348C26.9431 27.8415 26.7792 28.011 26.5744 28.011C26.3697 28.011 26.2041 27.8432 26.2041 27.6348C26.2041 27.428 26.3697 27.2603 26.5744 27.2603ZM26.5744 9.65434C26.6754 9.65299 26.7716 9.61186 26.842 9.54003C26.9124 9.46824 26.9512 9.37158 26.9499 9.27132C26.9499 9.05951 26.7826 8.88835 26.5744 8.88835C26.473 8.88924 26.3762 8.9301 26.3051 9.00189C26.2341 9.07372 26.1947 9.17065 26.1956 9.27132C26.1942 9.37215 26.2335 9.46934 26.3046 9.54123C26.3758 9.61316 26.4729 9.65387 26.5744 9.65434ZM30.3389 28.6245C30.4567 28.7278 30.4464 28.9295 30.3219 29.0753C30.1939 29.221 29.9993 29.2549 29.8833 29.1498C29.7672 29.0464 29.7758 28.8448 29.9021 28.7007C30.0283 28.5533 30.2246 28.5228 30.3389 28.6245ZM33.0949 17.7905C32.9992 17.6392 32.9489 17.464 32.9498 17.2854C32.9498 17.099 33.001 16.9262 33.0898 16.7855L26.943 10.478V26.7518C27.2837 26.9009 27.5076 27.2314 27.5181 27.6009L29.6034 28.2364C29.6682 28.178 29.7405 28.1284 29.8185 28.089L33.0949 17.7905ZM12.9345 9.6052C13.0676 9.96953 13.414 10.2322 13.8218 10.2322C13.9043 10.2309 13.9863 10.2195 14.0659 10.1983L20.0096 17.5363C19.8954 17.8277 19.9332 18.1563 20.1105 18.4147C20.2878 18.6731 20.582 18.8282 20.8969 18.8293C21.151 18.8271 21.3937 18.7245 21.5714 18.5442C21.7491 18.3638 21.8472 18.1207 21.844 17.8684C21.8446 17.5366 21.673 17.2279 21.3901 17.0516V10.1543C21.6306 10.0489 21.8174 9.85059 21.9072 9.6052H25.687C25.7792 9.85262 25.9651 10.0526 26.2041 10.1543V26.7519C25.9635 26.8573 25.7768 27.0556 25.687 27.3009H22.4004C22.2387 26.8519 21.7642 26.5941 21.2962 26.701L15.4465 19.5021C15.4874 19.3953 15.5078 19.2818 15.5078 19.1631C15.5111 18.9111 15.4132 18.6683 15.2359 18.488C15.0585 18.3077 14.8162 18.2049 14.5624 18.2023C14.0344 18.2088 13.6114 18.6387 13.6171 19.1631C13.6153 19.478 13.7681 19.7739 14.0266 19.9562V26.7519C13.7868 26.8576 13.6006 27.0559 13.5113 27.301H9.72973C9.64139 27.0553 9.45494 26.8566 9.21437 26.7519V10.1543C9.45483 10.0493 9.64123 9.8508 9.72973 9.6052H12.9345ZM13.4123 3.37388C13.6171 3.37388 13.7877 3.22136 13.7877 3.03155C13.7877 2.84175 13.6171 2.69092 13.4123 2.69092C13.2024 2.69092 13.0317 2.84344 13.0317 3.02985C13.0317 3.21627 13.2024 3.37388 13.4106 3.37388H13.4123ZM13.8236 8.88835C14.0301 8.88835 14.199 9.05951 14.199 9.27132C14.2009 9.48032 14.0323 9.65153 13.8219 9.65434C13.7205 9.65345 13.6236 9.61259 13.5526 9.54076C13.4816 9.46892 13.4421 9.37199 13.4431 9.27132C13.4421 9.17033 13.4818 9.0732 13.5532 9.00131C13.6246 8.92943 13.7219 8.88877 13.8236 8.88835ZM21.2758 17.8684C21.2758 17.6566 21.1052 17.4854 20.897 17.4854C20.6888 17.4854 20.5198 17.6566 20.5198 17.8684C20.5198 18.0819 20.6888 18.2514 20.897 18.2514C21.1052 18.2514 21.2758 18.0819 21.2758 17.8684ZM21.2893 9.54076C21.2182 9.61259 21.1214 9.65345 21.02 9.65434C20.9188 9.65345 20.8221 9.61254 20.7513 9.54065C20.6805 9.46877 20.6415 9.37184 20.6429 9.27132C20.6429 9.05951 20.8118 8.88835 21.02 8.88835C21.2282 8.88835 21.3988 9.05951 21.3988 9.27132C21.3997 9.37199 21.3603 9.46892 21.2893 9.54076ZM20.6512 10.1543C20.2312 9.97125 19.9987 9.52014 20.0949 9.07476L13.9635 3.79247C13.9077 3.8247 13.8488 3.85138 13.7878 3.87213L14.1018 8.35281C14.5009 8.48306 14.7697 8.85415 14.7673 9.27132C14.7673 9.44081 14.7246 9.59843 14.6478 9.73398L20.5232 16.9872C20.5646 16.9691 20.6075 16.9544 20.6512 16.9431V10.1543ZM8.57597 9.54123C8.50523 9.46975 8.46602 9.37324 8.46695 9.27304L8.46524 9.27132C8.46524 9.05951 8.6359 8.88835 8.84406 8.88835C9.05227 8.88835 9.22289 9.05951 9.22289 9.27132C9.22382 9.37199 9.1844 9.46892 9.11335 9.54076C9.0423 9.61259 8.94544 9.65345 8.84406 9.65434C8.74315 9.65345 8.6467 9.61275 8.57597 9.54123ZM35.2759 14.3926C35.1222 14.418 35.025 14.5943 35.0574 14.7841C35.0915 14.9756 35.24 15.1095 35.3919 15.0824C35.5455 15.057 35.641 14.879 35.6086 14.6892C35.5779 14.4977 35.4277 14.3638 35.2759 14.3926ZM1.33559 23.7235C1.38166 23.8777 1.31682 24.037 1.19395 24.076H1.19225C1.06938 24.115 0.929444 24.0234 0.88508 23.8675C0.840706 23.7134 0.902141 23.554 1.02842 23.5151C1.15129 23.4761 1.28951 23.5693 1.33559 23.7235Z" fill="#50C4CF"/>
<path d="M55.8003 17.1781L61.1289 0.780823H57.0389L53.4164 12.8445L49.7938 0.780823H45.7039L51.0325 17.1781H55.8003ZM69.5093 6.56671C68.6913 5.6063 67.5228 5.13781 66.027 5.13781C64.4845 5.13781 63.1757 5.74685 62.0773 6.94151C60.9788 8.13616 60.4413 9.58849 60.4413 11.3219C60.4413 13.0553 60.9788 14.5311 62.0773 15.7258C63.1757 16.9204 64.4845 17.506 66.027 17.506C67.5228 17.506 68.6913 17.0375 69.5093 16.0771V17.1781H73.015V5.46575H69.5093V6.56671ZM64.7182 13.4067C64.2041 12.8914 63.947 12.1886 63.947 11.3219C63.947 10.4552 64.2041 9.75247 64.7182 9.23712C65.2324 8.72178 65.9102 8.46411 66.7282 8.46411C67.5462 8.46411 68.2239 8.72178 68.7381 9.23712C69.2523 9.75247 69.5093 10.4552 69.5093 11.3219C69.5093 12.1886 69.2523 12.8914 68.7381 13.4067C68.2239 13.9221 67.5462 14.1797 66.7282 14.1797C65.9102 14.1797 65.2324 13.9221 64.7182 13.4067ZM82.4347 5.13781C80.9156 5.13781 79.7937 5.6063 79.0926 6.56671V5.46575H75.5869V17.1781H79.0926V10.7831C79.0926 9.19027 79.934 8.37041 81.2661 8.37041C82.4581 8.37041 83.2994 9.12 83.2994 10.5021V17.1781H86.8051V9.98671C86.8051 8.46411 86.3844 7.29288 85.5431 6.42616C84.7251 5.55945 83.6734 5.13781 82.4347 5.13781ZM98.912 0.780823H95.1726V17.1781H104.755V13.5707H98.912V0.780823ZM114.654 6.56671C113.836 5.6063 112.668 5.13781 111.172 5.13781C109.63 5.13781 108.321 5.74685 107.222 6.94151C106.124 8.13616 105.586 9.58849 105.586 11.3219C105.586 13.0553 106.124 14.5311 107.222 15.7258C108.321 16.9204 109.63 17.506 111.172 17.506C112.668 17.506 113.836 17.0375 114.654 16.0771V17.1781H118.16V5.46575H114.654V6.56671ZM109.863 13.4067C109.349 12.8914 109.092 12.1886 109.092 11.3219C109.092 10.4552 109.349 9.75247 109.863 9.23712C110.377 8.72178 111.055 8.46411 111.873 8.46411C112.691 8.46411 113.369 8.72178 113.883 9.23712C114.397 9.75247 114.654 10.4552 114.654 11.3219C114.654 12.1886 114.397 12.8914 113.883 13.4067C113.369 13.9221 112.691 14.1797 111.873 14.1797C111.055 14.1797 110.377 13.9221 109.863 13.4067ZM127.58 5.13781C126.061 5.13781 124.939 5.6063 124.238 6.56671V5.46575H120.732V17.1781H124.238V10.7831C124.238 9.19027 125.079 8.37041 126.411 8.37041C127.603 8.37041 128.444 9.12 128.444 10.5021V17.1781H131.95V9.98671C131.95 8.46411 131.529 7.29288 130.688 6.42616C129.87 5.55945 128.818 5.13781 127.58 5.13781ZM142.935 6.66041C142.117 5.65315 140.995 5.13781 139.523 5.13781C137.887 5.13781 136.508 5.72342 135.41 6.89466C134.311 8.04247 133.774 9.44794 133.774 11.0877C133.774 12.7274 134.311 14.1329 135.41 15.3041C136.508 16.4519 137.887 17.0375 139.523 17.0375C140.995 17.0375 142.117 16.5222 142.935 15.5149V16.5925C142.935 18.2088 141.954 19.0989 140.294 19.0989C139.056 19.0989 138.167 18.607 137.63 17.6231L134.638 19.3566C135.69 21.254 137.536 22.191 140.177 22.191C141.883 22.191 143.356 21.7225 144.548 20.7621C145.74 19.8251 146.347 18.443 146.347 16.5925V5.46575H142.935V6.66041ZM138.074 13.0553C137.536 12.5634 137.279 11.9075 137.279 11.0877C137.279 10.2678 137.536 9.61192 138.074 9.12C138.612 8.62808 139.289 8.37041 140.107 8.37041C140.925 8.37041 141.603 8.62808 142.141 9.12C142.678 9.61192 142.935 10.2678 142.935 11.0877C142.935 11.9075 142.678 12.5634 142.141 13.0553C141.603 13.5473 140.925 13.8049 140.107 13.8049C139.289 13.8049 138.612 13.5473 138.074 13.0553Z" fill="black"/>
<path d="M154.879 0.780823V17.1781H161.423C163.69 17.1781 165.56 16.4051 167.079 14.8356C168.598 13.2662 169.369 11.2985 169.369 8.97945C169.369 6.66041 168.598 4.71617 167.079 3.14671C165.56 1.57726 163.69 0.780823 161.423 0.780823H154.879ZM158.618 13.5707V4.38822H161.423C162.708 4.38822 163.76 4.80986 164.555 5.65315C165.373 6.47301 165.77 7.5974 165.77 8.97945C165.77 10.3615 165.373 11.4859 164.555 12.3292C163.76 13.149 162.708 13.5707 161.423 13.5707H158.618ZM181.358 15.7258C182.55 14.5311 183.157 13.0553 183.157 11.3219C183.157 9.58849 182.55 8.13617 181.358 6.94151C180.166 5.74685 178.693 5.13781 176.964 5.13781C175.234 5.13781 173.762 5.74685 172.57 6.94151C171.378 8.13617 170.77 9.58849 170.77 11.3219C170.77 13.0553 171.378 14.5311 172.57 15.7258C173.762 16.9204 175.234 17.506 176.964 17.506C178.693 17.506 180.166 16.9204 181.358 15.7258ZM175.047 13.313C174.533 12.7977 174.276 12.1418 174.276 11.3219C174.276 10.5021 174.533 9.84617 175.047 9.33082C175.562 8.81548 176.193 8.55781 176.964 8.55781C177.735 8.55781 178.366 8.81548 178.88 9.33082C179.394 9.84617 179.652 10.5021 179.652 11.3219C179.652 12.1418 179.394 12.7977 178.88 13.313C178.366 13.8284 177.735 14.086 176.964 14.086C176.193 14.086 175.562 13.8284 175.047 13.313ZM190.749 17.506C193.016 17.506 195.003 16.3348 196.031 14.4842L192.97 12.7274C192.572 13.5941 191.801 14.0392 190.703 14.0392C189.183 14.0392 188.062 12.9148 188.062 11.3219C188.062 9.72904 189.183 8.60466 190.703 8.60466C191.801 8.60466 192.549 9.04973 192.97 9.91644L196.031 8.13617C195.003 6.33247 192.993 5.13781 190.749 5.13781C188.973 5.13781 187.501 5.72343 186.309 6.91808C185.14 8.11274 184.556 9.56507 184.556 11.3219C184.556 13.0788 185.14 14.5311 186.309 15.7258C187.501 16.9204 188.973 17.506 190.749 17.506ZM204.29 5.46575H201.883V2.1863L198.377 3.24041V5.46575H196.507V8.83891H198.377V12.9851C198.377 14.6951 198.798 15.8663 199.663 16.5456C200.527 17.2015 202.07 17.4123 204.29 17.1781V13.9923C202.584 14.086 201.883 13.9221 201.883 12.9851V8.83891H204.29V5.46575ZM216.506 15.7258C217.698 14.5311 218.306 13.0553 218.306 11.3219C218.306 9.58849 217.698 8.13617 216.506 6.94151C215.314 5.74685 213.842 5.13781 212.112 5.13781C210.383 5.13781 208.91 5.74685 207.718 6.94151C206.526 8.13617 205.919 9.58849 205.919 11.3219C205.919 13.0553 206.526 14.5311 207.718 15.7258C208.91 16.9204 210.383 17.506 212.112 17.506C213.842 17.506 215.314 16.9204 216.506 15.7258ZM210.196 13.313C209.682 12.7977 209.425 12.1418 209.425 11.3219C209.425 10.5021 209.682 9.84617 210.196 9.33082C210.71 8.81548 211.341 8.55781 212.112 8.55781C212.883 8.55781 213.515 8.81548 214.029 9.33082C214.543 9.84617 214.8 10.5021 214.8 11.3219C214.8 12.1418 214.543 12.7977 214.029 13.313C213.515 13.8284 212.883 14.086 212.112 14.086C211.341 14.086 210.71 13.8284 210.196 13.313ZM223.794 5.46575H220.289V17.1781H223.794V11.8841C223.794 10.83 224.168 10.0804 224.893 9.65877C225.641 9.2137 226.435 9.07315 227.3 9.2137V5.23151C225.711 5.23151 224.238 6.05137 223.794 7.55055V5.46575Z" fill="#50C4CF"/>
<path d="M45.9376 25.7671V26.9123H48.6123V34.8767H49.8068V26.9123H52.4945V25.7671H45.9376ZM53.8147 28.3699H52.6851V34.8767H53.8147V31.4281C53.8147 30.7123 54.0095 30.2048 54.412 29.8795C54.8145 29.5541 55.2819 29.411 55.8402 29.437V28.2527C54.8664 28.2527 54.1913 28.6562 53.8147 29.463V28.3699ZM61.4249 31.8185C61.4249 33.276 60.6719 33.9658 59.5422 33.9658C58.5425 33.9658 57.9322 33.3541 57.9322 32.3V28.3699H56.8026V32.3651C56.8026 34.0178 57.8024 35.0459 59.3215 35.0459C60.2694 35.0459 60.9705 34.6815 61.4249 33.9397V34.8767H62.5545V28.3699H61.4249V31.8185ZM67.5072 28.2007C66.5594 28.2007 65.8582 28.5651 65.4038 29.3069V28.3699H64.2742V34.8767H65.4038V31.4281C65.4038 29.9705 66.1568 29.2808 67.2865 29.2808C68.2862 29.2808 68.8965 29.8925 68.8965 30.9466V34.8767H70.0261V30.8815C70.0261 29.2288 69.0263 28.2007 67.5072 28.2007ZM76.9918 29.489C76.4335 28.6301 75.6155 28.2007 74.5508 28.2007C73.6289 28.2007 72.8369 28.526 72.2007 29.1897C71.5644 29.8404 71.2398 30.6342 71.2398 31.5842C71.2398 32.5342 71.5644 33.3281 72.2007 33.9918C72.8369 34.6555 73.6289 34.9808 74.5508 34.9808C75.6025 34.9808 76.4205 34.5514 76.9918 33.6795V34.6034C76.9918 35.8397 76.1738 36.5945 74.8234 36.5945C73.7717 36.5945 73.0576 36.2301 72.707 35.5014L71.7203 36.061C72.2526 37.089 73.3433 37.6486 74.7975 37.6486C75.7064 37.6486 76.4854 37.3753 77.1346 36.8418C77.7838 36.3082 78.1084 35.5664 78.1084 34.6034V28.3699H76.9918V29.489ZM76.9918 31.5842C76.9918 32.2479 76.771 32.7945 76.3296 33.237C75.8881 33.6795 75.3428 33.9007 74.6806 33.9007C74.0184 33.9007 73.4731 33.6795 73.0316 33.237C72.5902 32.7945 72.3695 32.2479 72.3695 31.5842C72.3695 30.9336 72.5902 30.387 73.0316 29.9445C73.4731 29.5021 74.0184 29.2808 74.6806 29.2808C75.3428 29.2808 75.8881 29.5021 76.3296 29.9445C76.771 30.387 76.9918 30.9336 76.9918 31.5842ZM86.5974 28.3699H84.8705V26.5479L83.7409 26.8863V28.3699H82.4555V29.463H83.7409V32.9897C83.7409 34.6034 84.6238 35.137 86.5974 34.8767V33.8616C85.4418 33.9137 84.8705 33.9918 84.8705 32.9897V29.463H86.5974V28.3699ZM92.4002 27.524H93.6077L92.2314 25.7671H90.9849L89.6086 27.524H90.8161L91.6082 26.4699L92.4002 27.524ZM93.348 29.489C92.7897 28.6301 91.9717 28.2007 90.8941 28.2007C89.9852 28.2007 89.2061 28.539 88.5699 29.2027C87.9337 29.8664 87.6091 30.6733 87.6091 31.6233C87.6091 32.5733 87.9337 33.3932 88.5699 34.0569C89.2061 34.7206 89.9852 35.0459 90.8941 35.0459C91.9717 35.0459 92.7897 34.6164 93.348 33.7575V34.8767H94.4776V28.3699H93.348V29.489ZM91.0369 33.9527C90.3877 33.9527 89.8423 33.7315 89.4009 33.289C88.9594 32.8336 88.7387 32.287 88.7387 31.6233C88.7387 30.9596 88.9594 30.413 89.4009 29.9705C89.8423 29.5151 90.3877 29.2938 91.0369 29.2938C91.6991 29.2938 92.2444 29.5151 92.6859 29.9705C93.1273 30.413 93.348 30.9596 93.348 31.6233C93.348 32.287 93.1273 32.8336 92.6859 33.289C92.2444 33.7315 91.6991 33.9527 91.0369 33.9527ZM103.201 28.2007C102.292 28.2007 101.617 28.5651 101.162 29.3069C100.76 28.5651 100.124 28.2007 99.2537 28.2007C98.4097 28.2007 97.7605 28.5521 97.3191 29.2418V28.3699H96.1895V34.8767H97.3191V31.2589C97.3191 29.9445 98.0332 29.2808 98.981 29.2808C99.825 29.2808 100.357 29.8664 100.357 30.8685V34.8767H101.487V31.2589C101.487 29.9185 102.11 29.2808 103.084 29.2808C103.954 29.2808 104.512 29.8664 104.512 30.8685V34.8767H105.642V30.8295C105.642 29.2158 104.655 28.2007 103.201 28.2007ZM113.985 28.3699H112.259V26.5479L111.129 26.8863V28.3699H109.843V29.463H111.129V32.9897C111.129 34.6034 112.012 35.137 113.985 34.8767V33.8616C112.83 33.9137 112.259 33.9918 112.259 32.9897V29.463H113.985V28.3699ZM121.022 27.563C121.022 28.1356 120.931 28.3699 120.36 28.3699H119.841V31.8185C119.841 33.276 119.088 33.9658 117.958 33.9658C116.958 33.9658 116.348 33.3541 116.348 32.3V28.3699H115.218V32.3651C115.218 34.0178 116.218 35.0459 117.737 35.0459C118.685 35.0459 119.386 34.6815 119.841 33.9397V34.8767H120.97V29.1897C121.762 29.0336 122.022 28.5 122.022 27.563V27.4069H121.022V27.563ZM128.442 33.6664L126.403 28.3699H125.183L127.78 34.8767H129.104L131.701 28.3699H130.48L128.442 33.6664ZM137.019 27.524H138.148L136.863 25.8842H135.707L134.422 27.524H135.551L136.291 26.5349L137.019 27.524ZM138.031 29.489C137.473 28.6301 136.655 28.2007 135.577 28.2007C134.668 28.2007 133.889 28.539 133.253 29.2027C132.617 29.8664 132.292 30.6733 132.292 31.6233C132.292 32.5733 132.617 33.3932 133.253 34.0569C133.889 34.7206 134.668 35.0459 135.577 35.0459C136.655 35.0459 137.473 34.6164 138.031 33.7575V34.8767H139.161V28.3699H138.031V29.489ZM135.72 33.9527C135.071 33.9527 134.526 33.7315 134.084 33.289C133.643 32.8336 133.422 32.287 133.422 31.6233C133.422 30.9596 133.643 30.413 134.084 29.9705C134.526 29.5151 135.071 29.2938 135.72 29.2938C136.382 29.2938 136.928 29.5151 137.369 29.9705C137.811 30.413 138.031 30.9596 138.031 31.6233C138.031 32.287 137.811 32.8336 137.369 33.289C136.928 33.7315 136.382 33.9527 135.72 33.9527ZM137.59 26.3267H138.603L139.836 24.726H138.551L137.59 26.3267ZM144.106 28.2007C143.158 28.2007 142.457 28.5651 142.002 29.3069V28.3699H140.873V34.8767H142.002V31.4281C142.002 29.9705 142.755 29.2808 143.885 29.2808C144.885 29.2808 145.495 29.8925 145.495 30.9466V34.8767H146.625V30.8815C146.625 29.2288 145.625 28.2007 144.106 28.2007ZM152.421 30.1267C152.421 29.5671 152.941 29.2548 153.577 29.2548C154.265 29.2548 154.732 29.5281 154.966 30.0877L155.914 29.5541C155.499 28.7082 154.629 28.2007 153.577 28.2007C152.915 28.2007 152.369 28.3829 151.928 28.7473C151.499 29.1116 151.279 29.5801 151.279 30.1397C151.279 31.5192 152.603 31.8575 153.629 32.1308C154.343 32.3 154.914 32.5863 154.914 33.0938C154.914 33.7055 154.369 33.9788 153.629 33.9788C152.837 33.9788 152.227 33.5884 152.019 32.9637L151.045 33.5233C151.422 34.4473 152.369 35.0459 153.629 35.0459C154.343 35.0459 154.914 34.8637 155.369 34.5123C155.823 34.161 156.057 33.6795 156.057 33.0938C156.07 31.7014 154.719 31.324 153.707 31.1027C152.993 30.9075 152.421 30.6342 152.421 30.1267ZM160.705 25.7671L159.666 27.4849H160.757L162.068 25.7671H160.705ZM163.055 27.563C163.055 28.1356 162.964 28.3699 162.393 28.3699H161.874V31.8185C161.874 33.276 161.121 33.9658 159.991 33.9658C158.991 33.9658 158.381 33.3541 158.381 32.3V28.3699H157.251V32.3651C157.251 34.0178 158.251 35.0459 159.77 35.0459C160.718 35.0459 161.419 34.6815 161.874 33.9397V34.8767H163.003V29.1897C163.795 29.0336 164.055 28.5 164.055 27.563V27.4069H163.055V27.563ZM167.775 35.0459C169.034 35.0459 170.138 34.3822 170.696 33.3541L169.735 32.7945C169.372 33.4842 168.645 33.9267 167.775 33.9267C167.125 33.9267 166.58 33.7055 166.139 33.263C165.71 32.8205 165.49 32.274 165.49 31.6233C165.49 30.9596 165.71 30.413 166.139 29.9705C166.58 29.5281 167.125 29.3069 167.775 29.3069C168.645 29.3069 169.372 29.7623 169.696 30.4521L170.644 29.9055C170.138 28.8644 169.06 28.2007 167.775 28.2007C166.801 28.2007 165.983 28.526 165.334 29.1897C164.684 29.8404 164.36 30.6473 164.36 31.6233C164.36 32.5993 164.684 33.4062 165.334 34.0699C165.983 34.7205 166.801 35.0459 167.775 35.0459ZM177.355 31.5192L180.459 28.3699H179.004L176.2 31.2459V25.7671H175.07V34.8767H176.2V31.7925L179.16 34.8767H180.562L177.355 31.5192ZM184.846 28.2007C183.898 28.2007 183.197 28.5651 182.742 29.3069V25.7671H181.613V34.8767H182.742V31.4281C182.742 29.9705 183.495 29.2808 184.625 29.2808C185.625 29.2808 186.235 29.8925 186.235 30.9466V34.8767H187.365V30.8815C187.365 29.2288 186.365 28.2007 184.846 28.2007ZM194.421 34.0569C195.083 33.3932 195.421 32.5863 195.421 31.6233C195.421 30.6603 195.083 29.8534 194.421 29.1897C193.759 28.526 192.941 28.2007 191.993 28.2007C191.045 28.2007 190.227 28.526 189.565 29.1897C188.903 29.8534 188.578 30.6603 188.578 31.6233C188.578 32.5863 188.903 33.3932 189.565 34.0569C190.227 34.7206 191.045 35.0459 191.993 35.0459C192.941 35.0459 193.759 34.7206 194.421 34.0569ZM191.993 33.9397C191.357 33.9397 190.812 33.7185 190.37 33.276C189.929 32.8336 189.708 32.287 189.708 31.6233C189.708 30.9596 189.929 30.413 190.37 29.9705C190.812 29.5281 191.357 29.3069 191.993 29.3069C192.642 29.3069 193.188 29.5281 193.629 29.9705C194.071 30.413 194.291 30.9596 194.291 31.6233C194.291 32.287 194.071 32.8336 193.629 33.276C193.188 33.7185 192.642 33.9397 191.993 33.9397ZM200.44 27.524C200.401 27.2247 200.505 27.1466 200.674 27.0685C200.92 26.9384 201.154 26.6521 201.154 26.1575C201.154 25.4938 200.648 25.1815 200.037 25.1815C199.466 25.1815 198.96 25.4288 198.713 26.0404L199.44 26.3527C199.544 26.0404 199.804 25.9493 200.037 25.9493C200.258 25.9493 200.362 26.0404 200.362 26.1705C200.362 26.3788 200.193 26.4569 200.115 26.4959C200.102 26.5089 199.908 26.626 199.908 26.626C199.661 26.8212 199.648 26.9514 199.648 27.524H200.44ZM202.985 32.1438C203.011 31.9747 203.024 31.8055 203.024 31.6363C203.024 30.6863 202.725 29.8795 202.115 29.2158C201.518 28.539 200.739 28.2007 199.791 28.2007C198.791 28.2007 197.973 28.526 197.337 29.1767C196.701 29.8274 196.389 30.6473 196.389 31.6233C196.389 32.6123 196.714 33.4322 197.35 34.0829C197.999 34.7205 198.843 35.0459 199.869 35.0459C201.141 35.0459 202.089 34.5514 202.725 33.5753L201.764 33.0288C201.375 33.6664 200.752 33.9788 199.895 33.9788C198.661 33.9788 197.765 33.3021 197.544 32.1438H202.985ZM199.791 29.2678C200.829 29.2678 201.686 29.9185 201.881 31.1548H197.544C197.739 30.0096 198.583 29.2678 199.791 29.2678Z" fill="black" fill-opacity="0.6"/>
</svg>
