<svg width="15" height="15" viewBox="0 0 15 15" fill="none" xmlns="http://www.w3.org/2000/svg">
<g clip-path="url(#clip0_662_69)">
<path d="M8.76131 1.25033C7.80374 1.2486 6.85857 1.46692 5.99877 1.88844C5.13897 2.30996 4.38751 2.92341 3.80242 3.68143C3.21732 4.43946 2.81422 5.32179 2.62424 6.26033C2.43426 7.19886 2.46247 8.1685 2.70671 9.09441C2.95094 10.0203 3.40466 10.8777 4.03284 11.6004C4.66102 12.3232 5.44687 12.8919 6.32973 13.2627C7.21259 13.6335 8.16885 13.7965 9.1247 13.7391C10.0806 13.6817 11.0104 13.4054 11.8426 12.9316H11.8863H11.9176C13.1208 12.2466 14.0626 11.1814 14.595 9.90329C15.1274 8.62514 15.2204 7.20639 14.8592 5.86973C14.498 4.53306 13.7032 3.35416 12.5996 2.51809C11.4959 1.68201 10.1458 1.2361 8.76131 1.25033V1.25033ZM9.38631 2.54408C10.4863 2.68358 11.5088 3.18477 12.2928 3.96882C13.0769 4.75288 13.5781 5.77532 13.7176 6.87533H9.38631V2.54408ZM8.76131 12.5003C7.49537 12.4917 6.27984 12.0032 5.36002 11.1334C4.44019 10.2635 3.88456 9.07718 3.80525 7.8137C3.72593 6.55023 4.12884 5.3037 4.93267 4.32568C5.7365 3.34766 6.88139 2.71096 8.13631 2.54408V7.50033C8.13877 7.57516 8.15355 7.64906 8.18006 7.71908V7.76908V7.81283L10.6801 12.1066C10.0736 12.3661 9.42093 12.5001 8.76131 12.5003V12.5003ZM11.7801 11.4753L9.84256 8.12533H13.7176C13.6334 8.78445 13.4187 9.42018 13.0861 9.99538C12.7534 10.5706 12.3094 11.0737 11.7801 11.4753Z" fill="black" fill-opacity="0.7"/>
</g>
<defs>
<clipPath id="clip0_662_69">
<rect width="15" height="15" fill="white"/>
</clipPath>
</defs>
</svg>
