<svg width="24" height="28" viewBox="0 0 24 28" fill="none" xmlns="http://www.w3.org/2000/svg">
<g clip-path="url(#clip0_7_77)">
<path d="M14 3.5C11.82 3.5 10.189 3.806 9.19 4.069C8.803 4.171 8.51 4.266 8.32 4.334C8.23323 4.36461 8.14721 4.39728 8.062 4.432L8.054 4.436C7.87288 4.51254 7.66894 4.51489 7.48611 4.44255C7.30327 4.3702 7.15616 4.22895 7.07644 4.0492C6.99673 3.86946 6.9908 3.66559 7.05992 3.48151C7.12904 3.29743 7.26768 3.14786 7.446 3.065C7.446 3.065 7.688 2.968 7.45 3.063L7.457 3.06L7.478 3.05L7.551 3.02C7.613 2.996 7.701 2.962 7.816 2.92C8.046 2.84 8.378 2.731 8.81 2.618C9.919 2.326 11.68 2 14 2C16.321 2 18.081 2.326 19.19 2.618C19.622 2.731 19.955 2.839 20.184 2.921C20.2977 2.96155 20.4104 3.0049 20.522 3.051L20.544 3.06L20.55 3.063H20.553V3.064C20.7324 3.14602 20.8722 3.29539 20.9422 3.47977C21.0122 3.66414 21.0068 3.86868 20.9271 4.04909C20.8475 4.2295 20.6999 4.37126 20.5165 4.44368C20.333 4.51609 20.1284 4.51333 19.947 4.436H19.946L19.938 4.432C19.5689 4.2905 19.1923 4.16931 18.81 4.069C17.812 3.806 16.18 3.5 14 3.5ZM7.25 7C6.52065 7 5.82118 7.28973 5.30546 7.80546C4.78973 8.32118 4.5 9.02065 4.5 9.75V18.25C4.5 18.9793 4.78973 19.6788 5.30546 20.1945C5.82118 20.7103 6.52065 21 7.25 21H15.75C16.4793 21 17.1788 20.7103 17.6945 20.1945C18.2103 19.6788 18.5 18.9793 18.5 18.25V17.136L22.566 19.793C22.7546 19.9163 22.9731 19.9863 23.1982 19.9957C23.4234 20.005 23.6469 19.9533 23.8451 19.846C24.0433 19.7387 24.2088 19.5798 24.3241 19.3862C24.4393 19.1926 24.5001 18.9714 24.5 18.746V9.254C24.5001 9.02864 24.4393 8.80744 24.3241 8.6138C24.2088 8.42016 24.0433 8.26129 23.8451 8.154C23.6469 8.04671 23.4234 7.99499 23.1982 8.00432C22.9731 8.01365 22.7546 8.08368 22.566 8.207L18.5 10.864V9.75C18.5 9.02065 18.2103 8.32118 17.6945 7.80546C17.1788 7.28973 16.4793 7 15.75 7H7.25ZM18.5 12.656L23 9.716V18.284L18.5 15.344V12.656ZM6 9.75C6 9.06 6.56 8.5 7.25 8.5H15.75C16.44 8.5 17 9.06 17 9.75V18.25C17 18.94 16.44 19.5 15.75 19.5H7.25C6.56 19.5 6 18.94 6 18.25V9.75ZM9.19 23.931C10.189 24.194 11.82 24.5 14 24.5C16.18 24.5 17.812 24.194 18.81 23.931C19.198 23.829 19.49 23.734 19.681 23.666C19.777 23.632 19.847 23.605 19.891 23.587C19.913 23.578 19.929 23.572 19.938 23.567L19.946 23.565L19.947 23.564C20.1289 23.4835 20.3354 23.4786 20.521 23.5503C20.7065 23.6221 20.856 23.7646 20.9365 23.9465C21.017 24.1284 21.0219 24.3349 20.9502 24.5205C20.8784 24.706 20.7359 24.8555 20.554 24.936H20.553L20.55 24.937L20.544 24.94L20.522 24.95C20.4104 24.9961 20.2977 25.0395 20.184 25.08C19.954 25.16 19.622 25.269 19.191 25.382C18.081 25.674 16.321 26 14.001 26C11.679 26 9.919 25.674 8.81 25.382C8.47455 25.295 8.14292 25.1939 7.816 25.079C7.70227 25.0385 7.58957 24.9951 7.478 24.949L7.457 24.94L7.45 24.937C7.44867 24.9363 7.44733 24.9357 7.446 24.935C7.27054 24.8503 7.13492 24.7007 7.06785 24.5177C7.00079 24.3348 7.00754 24.133 7.08668 23.9549C7.16583 23.7769 7.31114 23.6366 7.49188 23.5639C7.67261 23.4911 7.87457 23.4915 8.055 23.565L8.062 23.568L8.109 23.588C8.154 23.605 8.224 23.632 8.319 23.666C8.51 23.734 8.803 23.829 9.191 23.931H9.19Z" fill="#383738"/>
</g>
<defs>
<clipPath id="clip0_7_77">
<rect width="24" height="28" fill="white"/>
</clipPath>
</defs>
</svg>
