<svg width="65" height="65" viewBox="0 0 65 65" fill="none" xmlns="http://www.w3.org/2000/svg">
<path d="M55.8694 41.8889C55.6587 41.635 55.4517 41.3811 55.2486 41.1361C52.4556 37.7579 50.7659 35.719 50.7659 26.1556C50.7659 21.2045 49.5814 17.142 47.2467 14.0951C45.5253 11.8442 43.1982 10.1367 40.131 8.87478C40.0916 8.85282 40.0563 8.82402 40.0269 8.78972C38.9237 5.09538 35.9048 2.62107 32.4999 2.62107C29.095 2.62107 26.0773 5.09538 24.9741 8.78591C24.9447 8.81895 24.9099 8.84684 24.8713 8.86843C17.7136 11.815 14.2351 17.4682 14.2351 26.1518C14.2351 35.719 12.5479 37.7579 9.75242 41.1323C9.54929 41.3773 9.34236 41.6261 9.13162 41.8851C8.58724 42.5416 8.24234 43.3404 8.13772 44.1868C8.0331 45.0332 8.17315 45.8918 8.54129 46.6611C9.32459 48.3115 10.994 49.336 12.8996 49.336H52.1141C54.0108 49.336 55.6688 48.3128 56.4547 46.67C56.8244 45.9005 56.9658 45.0412 56.862 44.1938C56.7583 43.3464 56.4138 42.5465 55.8694 41.8889ZM32.4999 59.4961C34.3344 59.4946 36.1343 58.9966 37.7087 58.055C39.2831 57.1133 40.5733 55.7631 41.4425 54.1475C41.4834 54.0701 41.5036 53.9834 41.5012 53.8959C41.4987 53.8083 41.4736 53.7229 41.4284 53.6479C41.3832 53.5729 41.3193 53.5109 41.243 53.4678C41.1667 53.4248 41.0806 53.4022 40.993 53.4023H24.0093C23.9216 53.402 23.8353 53.4244 23.7588 53.4674C23.6824 53.5103 23.6183 53.5723 23.5729 53.6473C23.5276 53.7224 23.5024 53.8079 23.4999 53.8955C23.4973 53.9832 23.5176 54.07 23.5586 54.1475C24.4276 55.7629 25.7176 57.113 27.2918 58.0546C28.8659 58.9963 30.6656 59.4944 32.4999 59.4961Z" fill="#50C4CF"/>
</svg>
