<svg width="32" height="32" viewBox="0 0 32 32" fill="none" xmlns="http://www.w3.org/2000/svg">
<path fill-rule="evenodd" clip-rule="evenodd" d="M15.9997 1.33325C7.89967 1.33325 1.33301 7.89992 1.33301 15.9999C1.33301 24.0999 7.89967 30.6666 15.9997 30.6666C24.0997 30.6666 30.6663 24.0999 30.6663 15.9999C30.6663 7.89992 24.0997 1.33325 15.9997 1.33325ZM17.333 21.3332C17.333 21.6869 17.1925 22.026 16.9425 22.2761C16.6924 22.5261 16.3533 22.6666 15.9997 22.6666C15.6461 22.6666 15.3069 22.5261 15.0569 22.2761C14.8068 22.026 14.6663 21.6869 14.6663 21.3332V17.3333H10.6663C10.3127 17.3333 9.97358 17.1928 9.72353 16.9427C9.47348 16.6927 9.33301 16.3535 9.33301 15.9999C9.33301 15.6463 9.47348 15.3072 9.72353 15.0571C9.97358 14.8071 10.3127 14.6666 10.6663 14.6666H14.6663V10.6666C14.6663 10.313 14.8068 9.97382 15.0569 9.72377C15.3069 9.47373 15.6461 9.33325 15.9997 9.33325C16.3533 9.33325 16.6924 9.47373 16.9425 9.72377C17.1925 9.97382 17.333 10.313 17.333 10.6666V14.6666H21.333C21.6866 14.6666 22.0258 14.8071 22.2758 15.0571C22.5259 15.3072 22.6663 15.6463 22.6663 15.9999C22.6663 16.3535 22.5259 16.6927 22.2758 16.9427C22.0258 17.1928 21.6866 17.3333 21.333 17.3333H17.333V21.3332Z" fill="#50C4CF"/>
</svg>
