<svg width="20" height="20" viewBox="0 0 20 20" fill="none" xmlns="http://www.w3.org/2000/svg">
<path d="M10.0098 3.71875L8.16602 7.45508L4.04102 8.05469L7.02539 10.9648L6.32031 15.0723L10.0098 13.1328L13.6992 15.0703L12.9941 10.9629L15.9785 8.05469L11.8535 7.45508L10.0098 3.71875Z" fill="white"/>
<path d="M17.7466 6.89063L12.7877 6.16993L10.5709 1.67579C10.5103 1.55274 10.4107 1.45313 10.2877 1.39259C9.97907 1.24024 9.60407 1.36719 9.44977 1.67579L7.23298 6.16993L2.27399 6.89063C2.13727 6.91016 2.01227 6.97462 1.91657 7.07227C1.80087 7.19119 1.73712 7.35118 1.73931 7.51708C1.74151 7.68298 1.80948 7.84123 1.92829 7.95704L5.51618 11.4551L4.66852 16.3945C4.64865 16.5094 4.66136 16.6276 4.70523 16.7357C4.74909 16.8437 4.82235 16.9373 4.9167 17.0058C5.01105 17.0743 5.12272 17.1151 5.23903 17.1234C5.35535 17.1316 5.47166 17.1072 5.57477 17.0527L10.0103 14.7207L14.4459 17.0527C14.567 17.1172 14.7076 17.1387 14.8424 17.1152C15.1822 17.0566 15.4107 16.7344 15.3521 16.3945L14.5045 11.4551L18.0924 7.95704C18.19 7.86134 18.2545 7.73634 18.274 7.59962C18.3267 7.25782 18.0884 6.94141 17.7466 6.89063V6.89063ZM12.9947 10.9629L13.6998 15.0703L10.0103 13.1328L6.32087 15.0723L7.02595 10.9649L4.04157 8.05469L8.16657 7.45509L10.0103 3.71876L11.8541 7.45509L15.9791 8.05469L12.9947 10.9629V10.9629Z" fill="#50C4CF"/>
</svg>
