<svg width="17" height="15" viewBox="0 0 17 15" fill="none" xmlns="http://www.w3.org/2000/svg">
<path d="M7.49739 5.45454H10.4963C10.6952 5.45454 10.8859 5.38271 11.0265 5.25484C11.1671 5.12698 11.2461 4.95356 11.2461 4.77273C11.2461 4.5919 11.1671 4.41847 11.0265 4.29061C10.8859 4.16274 10.6952 4.09091 10.4963 4.09091H8.99687V3.40909C8.99687 3.22826 8.91788 3.05484 8.77727 2.92697C8.63667 2.79911 8.44597 2.72727 8.24713 2.72727C8.04829 2.72727 7.85759 2.79911 7.71698 2.92697C7.57638 3.05484 7.49739 3.22826 7.49739 3.40909V4.09091C6.90086 4.09091 6.32876 4.30641 5.90695 4.69001C5.48514 5.07361 5.24817 5.59387 5.24817 6.13636C5.24817 6.67885 5.48514 7.19912 5.90695 7.58272C6.32876 7.96631 6.90086 8.18182 7.49739 8.18182H8.99687C9.19571 8.18182 9.38641 8.25365 9.52701 8.38152C9.66762 8.50938 9.74661 8.68281 9.74661 8.86363C9.74661 9.04446 9.66762 9.21789 9.52701 9.34575C9.38641 9.47362 9.19571 9.54545 8.99687 9.54545H5.99791C5.79907 9.54545 5.60837 9.61729 5.46777 9.74515C5.32716 9.87302 5.24817 10.0464 5.24817 10.2273C5.24817 10.4081 5.32716 10.5815 5.46777 10.7094C5.60837 10.8373 5.79907 10.9091 5.99791 10.9091H7.49739V11.5909C7.49739 11.7717 7.57638 11.9452 7.71698 12.073C7.85759 12.2009 8.04829 12.2727 8.24713 12.2727C8.44597 12.2727 8.63667 12.2009 8.77727 12.073C8.91788 11.9452 8.99687 11.7717 8.99687 11.5909V10.9091C9.5934 10.9091 10.1655 10.6936 10.5873 10.31C11.0091 9.92639 11.2461 9.40612 11.2461 8.86363C11.2461 8.32115 11.0091 7.80088 10.5873 7.41728C10.1655 7.03368 9.5934 6.81818 8.99687 6.81818H7.49739C7.29855 6.81818 7.10785 6.74635 6.96725 6.61848C6.82664 6.49061 6.74765 6.31719 6.74765 6.13636C6.74765 5.95553 6.82664 5.78211 6.96725 5.65424C7.10785 5.52638 7.29855 5.45454 7.49739 5.45454V5.45454ZM8.24713 0C6.616 0 5.0215 0.439867 3.66527 1.26398C2.30904 2.08809 1.25198 3.25943 0.627779 4.62987C0.00357338 6.00032 -0.159747 7.50832 0.15847 8.96318C0.476687 10.418 1.26215 11.7544 2.41553 12.8033C3.56891 13.8522 5.03841 14.5665 6.6382 14.8559C8.23798 15.1453 9.8962 14.9968 11.4032 14.4291C12.9101 13.8614 14.1982 12.9001 15.1044 11.6668C16.0106 10.4334 16.4943 8.98336 16.4943 7.5C16.4943 5.51088 15.6254 3.60322 14.0787 2.1967C12.5321 0.790176 10.4344 0 8.24713 0V0ZM8.24713 13.6364C6.91257 13.6364 5.60798 13.2765 4.49834 12.6022C3.38869 11.9279 2.52383 10.9696 2.01312 9.84828C1.5024 8.72701 1.36878 7.49319 1.62914 6.30285C1.88949 5.11252 2.53215 4.01912 3.47582 3.16094C4.4195 2.30275 5.62181 1.71832 6.93073 1.48154C8.23964 1.24477 9.59637 1.36629 10.8293 1.83074C12.0623 2.29519 13.1162 3.0817 13.8576 4.09082C14.599 5.09994 14.9948 6.28634 14.9948 7.5C14.9948 9.12746 14.2839 10.6883 13.0184 11.8391C11.753 12.9899 10.0367 13.6364 8.24713 13.6364V13.6364Z" fill="black" fill-opacity="0.7"/>
</svg>
