<svg width="24" height="24" viewBox="0 0 24 24" fill="none" xmlns="http://www.w3.org/2000/svg">
<path fill-rule="evenodd" clip-rule="evenodd" d="M16.5 9.2675C17.0815 9.4415 17.5 9.5 17.5 9.5V8H18.5C19.163 8 19.7989 7.73661 20.2678 7.26777C20.7366 6.79893 21 6.16304 21 5.5C21 4.83696 20.7366 4.20107 20.2678 3.73223C19.7989 3.26339 19.163 3 18.5 3H15.618C14.9237 3 14.2578 3.27582 13.7668 3.76679C13.2758 4.25776 13 4.92366 13 5.618C13 7.877 15.174 8.871 16.5 9.2675ZM20 5.5C20 5.89782 19.842 6.27936 19.5607 6.56066C19.2794 6.84196 18.8978 7 18.5 7H16.5V8.2175C16.2257 8.12435 15.9579 8.01294 15.6985 7.884C14.707 7.387 14 6.68 14 5.618C14 5.18888 14.1705 4.77734 14.4739 4.4739C14.7773 4.17047 15.1889 4 15.618 4H18.5C18.8978 4 19.2794 4.15804 19.5607 4.43934C19.842 4.72064 20 5.10218 20 5.5Z" fill="black"/>
<path fill-rule="evenodd" clip-rule="evenodd" d="M7.40862 8.9965C6.75337 8.97381 6.13329 8.69453 5.68207 8.21887C5.23085 7.74321 4.98463 7.10927 4.9965 6.45374C5.00838 5.79822 5.27739 5.17361 5.74554 4.7146C6.2137 4.25559 6.84348 3.99895 7.49912 4H9.08362C9.72451 4 10.3392 4.2546 10.7923 4.70778C11.2455 5.16096 11.5001 5.77561 11.5001 6.4165C11.5001 8.4375 9.68512 9.3615 8.50012 9.75C7.92612 9.938 7.50012 10 7.50012 10V9L7.40862 8.9965ZM8.50012 8.0355L7.44512 7.9975C7.04866 7.98889 6.67177 7.82353 6.39697 7.53763C6.12217 7.25173 5.97185 6.86859 5.97892 6.47211C5.986 6.07562 6.1499 5.69809 6.43472 5.42218C6.71955 5.14627 7.1021 4.99447 7.49862 5H9.08312C9.26918 4.99994 9.45342 5.03653 9.62534 5.10768C9.79726 5.17884 9.95347 5.28317 10.0851 5.41471C10.2166 5.54625 10.321 5.70243 10.3922 5.87432C10.4635 6.04621 10.5001 6.23044 10.5001 6.4165C10.5001 7.374 9.89162 8.0015 9.03812 8.4465C8.85812 8.5405 8.67562 8.6205 8.50012 8.6885V8.0355Z" fill="black"/>
<path fill-rule="evenodd" clip-rule="evenodd" d="M14 12C14 13.105 13.105 14 12 14C10.895 14 10 13.105 10 12C10 10.895 10.895 10 12 10C13.105 10 14 10.895 14 12ZM13 12C13 12.2652 12.8946 12.5196 12.7071 12.7071C12.5196 12.8946 12.2652 13 12 13C11.7348 13 11.4804 12.8946 11.2929 12.7071C11.1054 12.5196 11 12.2652 11 12C11 11.7348 11.1054 11.4804 11.2929 11.2929C11.4804 11.1054 11.7348 11 12 11C12.2652 11 12.5196 11.1054 12.7071 11.2929C12.8946 11.4804 13 11.7348 13 12Z" fill="black"/>
<path fill-rule="evenodd" clip-rule="evenodd" d="M9.5 13C9.5 14.105 8.605 15 7.5 15C6.395 15 5.5 14.105 5.5 13C5.5 11.895 6.395 11 7.5 11C8.605 11 9.5 11.895 9.5 13ZM8.5 13C8.5 13.2652 8.39464 13.5196 8.20711 13.7071C8.01957 13.8946 7.76522 14 7.5 14C7.23478 14 6.98043 13.8946 6.79289 13.7071C6.60536 13.5196 6.5 13.2652 6.5 13C6.5 12.7348 6.60536 12.4804 6.79289 12.2929C6.98043 12.1054 7.23478 12 7.5 12C7.76522 12 8.01957 12.1054 8.20711 12.2929C8.39464 12.4804 8.5 12.7348 8.5 13Z" fill="black"/>
<path fill-rule="evenodd" clip-rule="evenodd" d="M3 18.2725C3 16.7615 5.998 16 7.5 16C7.7925 16 8.142 16.029 8.515 16.0865C9.185 15.595 10.4135 15 12 15C13.586 15 14.8145 15.595 15.4855 16.0865C15.821 16.0324 16.1601 16.0035 16.5 16C18.002 16 21 16.7615 21 18.2725V21H3V18.2725ZM10.826 18.0115C11 18.1735 11 18.258 11 18.2725V20H4V18.2725C4 18.2575 4 18.1735 4.174 18.0115C4.3555 17.842 4.655 17.6615 5.062 17.4965C5.878 17.1665 6.875 17 7.5 17C8.125 17 9.122 17.1665 9.938 17.4965C10.345 17.6615 10.6445 17.842 10.826 18.0115ZM14.071 16.428C13.4174 16.1446 12.7124 15.9989 12 16C11.172 16 10.468 16.193 9.9295 16.428C11.037 16.8 12 17.416 12 18.273C12 17.416 12.963 16.8005 14.071 16.428ZM20 18.273C20 18.258 20 18.1735 19.826 18.0115C19.6445 17.842 19.345 17.6615 18.938 17.4965C18.122 17.1665 17.125 17 16.5 17C15.875 17 14.878 17.1665 14.062 17.4965C13.655 17.6615 13.3555 17.842 13.174 18.0115C13 18.1735 13 18.258 13 18.2725V20H20V18.2725V18.273Z" fill="black"/>
<path fill-rule="evenodd" clip-rule="evenodd" d="M16.5 15C17.605 15 18.5 14.105 18.5 13C18.5 11.895 17.605 11 16.5 11C15.395 11 14.5 11.895 14.5 13C14.5 14.105 15.395 15 16.5 15ZM16.5 14C16.7652 14 17.0196 13.8946 17.2071 13.7071C17.3946 13.5196 17.5 13.2652 17.5 13C17.5 12.7348 17.3946 12.4804 17.2071 12.2929C17.0196 12.1054 16.7652 12 16.5 12C16.2348 12 15.9804 12.1054 15.7929 12.2929C15.6054 12.4804 15.5 12.7348 15.5 13C15.5 13.2652 15.6054 13.5196 15.7929 13.7071C15.9804 13.8946 16.2348 14 16.5 14Z" fill="black"/>
</svg>
