<svg width="17" height="15" viewBox="0 0 17 15" fill="none" xmlns="http://www.w3.org/2000/svg">
<path d="M2.28166 6.39112C2.49831 6.41674 2.71728 6.36303 2.89039 6.24183C3.0635 6.12062 3.17658 5.94184 3.20474 5.74481C3.23291 5.54779 3.17385 5.34866 3.04057 5.19123C2.90729 5.0338 2.7107 4.93096 2.49405 4.90535L1.05632 4.57848C0.951501 4.54926 0.841288 4.53952 0.732246 4.54985C0.623203 4.56019 0.517563 4.59037 0.421619 4.63861C0.325675 4.68686 0.241391 4.75217 0.173789 4.83066C0.106187 4.90915 0.056649 4.99921 0.0281277 5.09548C-0.000393513 5.19175 -0.00731489 5.29225 0.00777619 5.391C0.0228673 5.48975 0.059662 5.58473 0.115968 5.67028C0.172274 5.75583 0.246939 5.83019 0.335514 5.88894C0.42409 5.94769 0.524763 5.98963 0.631536 6.01225L2.06926 6.36141C2.1377 6.38218 2.20952 6.39223 2.28166 6.39112V6.39112ZM5.43485 2.23839C5.48272 2.40046 5.58952 2.54301 5.73786 2.64284C5.88619 2.74266 6.06732 2.79387 6.25174 2.78812C6.32209 2.7984 6.39379 2.7984 6.46413 2.78812C6.67147 2.73596 6.84781 2.61153 6.95487 2.44184C7.06194 2.27215 7.09107 2.07091 7.03596 1.8818L6.65202 0.574324C6.62714 0.477224 6.58103 0.38567 6.51642 0.305119C6.45182 0.224568 6.37005 0.156667 6.27598 0.105462C6.18191 0.054257 6.07747 0.0207957 5.96888 0.00707173C5.86029 -0.00665221 5.74978 -0.000357864 5.64392 0.0255796C5.53806 0.051517 5.43903 0.0965668 5.35272 0.158045C5.26641 0.219523 5.19459 0.296172 5.14154 0.383424C5.08849 0.470676 5.0553 0.566746 5.04394 0.66591C5.03258 0.765074 5.04329 0.865303 5.07542 0.960625L5.43485 2.23839ZM9.38043 9.66725C9.30412 9.5942 9.21226 9.53603 9.11045 9.49628C9.00863 9.45653 8.89899 9.43603 8.78819 9.43603C8.67739 9.43603 8.56774 9.45653 8.46593 9.49628C8.36411 9.53603 8.27226 9.5942 8.19594 9.66725L5.33682 12.3119C5.00066 12.6052 4.55284 12.769 4.08698 12.769C3.62113 12.769 3.1733 12.6052 2.83714 12.3119C2.67166 12.1634 2.54027 11.9864 2.45059 11.7913C2.36091 11.5962 2.31474 11.3868 2.31474 11.1753C2.31474 10.9638 2.36091 10.7545 2.45059 10.5594C2.54027 10.3642 2.67166 10.1873 2.83714 10.0387L5.74527 7.43859C5.83078 7.372 5.90024 7.29004 5.94927 7.19788C5.9983 7.10571 6.02586 7.00532 6.0302 6.90301C6.03455 6.8007 6.01559 6.69868 5.97452 6.60335C5.93345 6.50802 5.87116 6.42144 5.79155 6.34904C5.71194 6.27664 5.61673 6.21999 5.5119 6.18264C5.40708 6.14529 5.29489 6.12805 5.18239 6.13201C5.06989 6.13596 4.9595 6.16101 4.85815 6.20561C4.7568 6.2502 4.66669 6.31336 4.59345 6.39112L1.66082 8.9838C1.34328 9.27257 1.0914 9.61539 0.91955 9.99268C0.747701 10.37 0.659252 10.7744 0.659252 11.1827C0.659252 11.5911 0.747701 11.9955 0.91955 12.3728C1.0914 12.7501 1.34328 13.0929 1.66082 13.3817C1.97835 13.6705 2.35532 13.8995 2.7702 14.0558C3.18508 14.2121 3.62975 14.2925 4.07881 14.2925C4.52788 14.2925 4.97254 14.2121 5.38742 14.0558C5.8023 13.8995 6.17927 13.6705 6.49681 13.3817L9.38043 10.7593C9.46335 10.6897 9.52953 10.6053 9.57479 10.5113C9.62005 10.4173 9.64342 10.3159 9.64342 10.2133C9.64342 10.1107 9.62005 10.0092 9.57479 9.91522C9.52953 9.82125 9.46335 9.73682 9.38043 9.66725ZM2.62475 3.41958C2.7769 3.55682 2.98227 3.6342 3.19657 3.63502C3.30408 3.63558 3.41065 3.61684 3.51018 3.57987C3.60971 3.5429 3.70023 3.48843 3.77656 3.41958C3.92871 3.28039 4.01411 3.0921 4.01411 2.89584C4.01411 2.69958 3.92871 2.5113 3.77656 2.37211L2.72278 1.41379C2.5665 1.29208 2.36549 1.22849 2.15989 1.23571C1.9543 1.24293 1.75928 1.32044 1.6138 1.45274C1.46831 1.58504 1.38308 1.7624 1.37514 1.94937C1.3672 2.13633 1.43713 2.31914 1.57096 2.46126L2.62475 3.41958ZM15.7603 8.86493L14.3226 8.51578C14.2161 8.48229 14.1031 8.46921 13.9907 8.47738C13.8783 8.48554 13.769 8.51477 13.6697 8.56322C13.5703 8.61167 13.4831 8.6783 13.4134 8.75891C13.3438 8.83951 13.2932 8.93236 13.265 9.0316C13.2367 9.13084 13.2313 9.23433 13.2492 9.33555C13.267 9.43677 13.3077 9.53354 13.3687 9.61976C13.4297 9.70598 13.5096 9.7798 13.6035 9.83655C13.6974 9.89331 13.8032 9.93178 13.9142 9.94955L15.3519 10.2987H15.5643C15.7809 10.3243 15.9999 10.2706 16.173 10.1494C16.3461 10.0282 16.4592 9.84942 16.4874 9.65239C16.5155 9.45537 16.4565 9.25624 16.3232 9.09881C16.1899 8.94138 15.9933 8.83855 15.7767 8.81293L15.7603 8.86493ZM10.957 12.6388C10.9287 12.5446 10.8802 12.4564 10.8143 12.3793C10.7484 12.3022 10.6665 12.2376 10.5732 12.1893C10.4799 12.1411 10.377 12.11 10.2704 12.0978C10.1639 12.0857 10.0558 12.0929 9.95226 12.1188C9.74492 12.1709 9.56858 12.2954 9.46151 12.4651C9.35445 12.6347 9.32532 12.836 9.38043 13.0251L9.76437 14.3326C9.81224 14.4946 9.91904 14.6372 10.0674 14.737C10.2157 14.8368 10.3968 14.8881 10.5813 14.8823C10.6518 14.8896 10.7231 14.8896 10.7937 14.8823C10.898 14.8573 10.9958 14.8138 11.0815 14.7542C11.1672 14.6947 11.2391 14.6203 11.293 14.5353C11.3469 14.4504 11.3818 14.3566 11.3956 14.2593C11.4095 14.162 11.402 14.0632 11.3736 13.9686L10.957 12.6388ZM13.7671 11.4725C13.6109 11.3508 13.4098 11.2872 13.2043 11.2944C12.9987 11.3016 12.8036 11.3791 12.6582 11.5114C12.5127 11.6437 12.4274 11.8211 12.4195 12.008C12.4116 12.195 12.4815 12.3778 12.6153 12.5199L13.6691 13.4783C13.8222 13.6166 14.0292 13.6943 14.245 13.6943C14.4608 13.6943 14.6679 13.6166 14.8209 13.4783C14.9731 13.3391 15.0585 13.1508 15.0585 12.9545C15.0585 12.7583 14.9731 12.57 14.8209 12.4308L13.7671 11.4725ZM15.7113 3.72416C15.724 3.10641 15.5328 2.49937 15.1624 1.98143C14.7919 1.46348 14.2593 1.0584 13.6332 0.818495C13.0071 0.578586 12.3163 0.514856 11.6499 0.635536C10.9836 0.756215 10.3723 1.05576 9.89507 1.4955L7.01145 4.14018C6.93421 4.21091 6.87305 4.29478 6.83145 4.387C6.78986 4.47923 6.76864 4.578 6.76902 4.67768C6.7694 4.77736 6.79137 4.876 6.83366 4.96796C6.87596 5.05992 6.93776 5.14341 7.01553 5.21365C7.09331 5.28389 7.18554 5.33951 7.28695 5.37734C7.38836 5.41517 7.49697 5.43446 7.60658 5.43411C7.71619 5.43377 7.82466 5.4138 7.92578 5.37533C8.0269 5.33687 8.1187 5.28066 8.19594 5.20993L11.0551 2.56526C11.3912 2.27196 11.839 2.10819 12.3049 2.10819C12.7708 2.10819 13.2186 2.27196 13.5547 2.56526C13.7202 2.71383 13.8516 2.89081 13.9413 3.08592C14.031 3.28104 14.0771 3.4904 14.0771 3.70188C14.0771 3.91335 14.031 4.12271 13.9413 4.31783C13.8516 4.51294 13.7202 4.68992 13.5547 4.83849L10.6466 7.43859C10.4945 7.57778 10.4091 7.76607 10.4091 7.96233C10.4091 8.15859 10.4945 8.34687 10.6466 8.48606C10.7997 8.62443 11.0067 8.70209 11.2225 8.70209C11.4383 8.70209 11.6454 8.62443 11.7984 8.48606L14.7311 5.89339C15.3563 5.3142 15.7081 4.53581 15.7113 3.72416V3.72416Z" fill="black" fill-opacity="0.7"/>
</svg>
