<svg width="15" height="15" viewBox="0 0 15 15" fill="none" xmlns="http://www.w3.org/2000/svg">
<path d="M7.6875 7.6375C8.02099 7.34884 8.28847 6.99181 8.4718 6.59064C8.65513 6.18948 8.75001 5.75357 8.75 5.3125C8.75 4.4837 8.42076 3.68885 7.83471 3.1028C7.24866 2.51674 6.4538 2.1875 5.625 2.1875C4.7962 2.1875 4.00134 2.51674 3.41529 3.1028C2.82924 3.68885 2.5 4.4837 2.5 5.3125C2.5 5.75357 2.59488 6.18948 2.7782 6.59064C2.96153 6.99181 3.22901 7.34884 3.5625 7.6375C2.68759 8.03368 1.94529 8.67346 1.42436 9.48034C0.903435 10.2872 0.62592 11.2271 0.625 12.1875C0.625 12.3533 0.690848 12.5122 0.808058 12.6294C0.925269 12.7467 1.08424 12.8125 1.25 12.8125C1.41576 12.8125 1.57473 12.7467 1.69194 12.6294C1.80915 12.5122 1.875 12.3533 1.875 12.1875C1.875 11.1929 2.27009 10.2391 2.97335 9.53585C3.67661 8.83259 4.63044 8.4375 5.625 8.4375C6.61956 8.4375 7.57339 8.83259 8.27665 9.53585C8.97991 10.2391 9.375 11.1929 9.375 12.1875C9.375 12.3533 9.44085 12.5122 9.55806 12.6294C9.67527 12.7467 9.83424 12.8125 10 12.8125C10.1658 12.8125 10.3247 12.7467 10.4419 12.6294C10.5592 12.5122 10.625 12.3533 10.625 12.1875C10.6241 11.2271 10.3466 10.2872 9.82564 9.48034C9.30471 8.67346 8.56241 8.03368 7.6875 7.6375V7.6375ZM5.625 7.1875C5.25416 7.1875 4.89165 7.07754 4.58331 6.87151C4.27496 6.66548 4.03464 6.37265 3.89273 6.03004C3.75081 5.68742 3.71368 5.31042 3.78603 4.94671C3.85838 4.583 4.03695 4.2489 4.29918 3.98668C4.5614 3.72446 4.89549 3.54588 5.25921 3.47353C5.62292 3.40118 5.99992 3.43832 6.34253 3.58023C6.68514 3.72214 6.97798 3.96247 7.18401 4.27081C7.39003 4.57915 7.5 4.94166 7.5 5.3125C7.5 5.80979 7.30246 6.2867 6.95083 6.63833C6.5992 6.98996 6.12228 7.1875 5.625 7.1875ZM11.7125 7.3875C12.1125 6.93709 12.3738 6.38066 12.4649 5.78522C12.556 5.18977 12.4731 4.58068 12.2261 4.03125C11.9791 3.48183 11.5786 3.0155 11.0728 2.68839C10.567 2.36129 9.97738 2.18734 9.375 2.1875C9.20924 2.1875 9.05027 2.25335 8.93306 2.37056C8.81585 2.48777 8.75 2.64674 8.75 2.8125C8.75 2.97826 8.81585 3.13724 8.93306 3.25445C9.05027 3.37166 9.20924 3.4375 9.375 3.4375C9.87228 3.4375 10.3492 3.63505 10.7008 3.98668C11.0525 4.33831 11.25 4.81522 11.25 5.3125C11.2491 5.64078 11.1621 5.96307 10.9975 6.24714C10.833 6.53122 10.5968 6.76712 10.3125 6.93125C10.2198 6.9847 10.1424 7.06104 10.0877 7.15297C10.033 7.24489 10.0028 7.34932 10 7.45625C9.99739 7.56236 10.0218 7.66738 10.071 7.76142C10.1202 7.85545 10.1926 7.93541 10.2813 7.99375L10.525 8.15625L10.6063 8.2C11.3596 8.55733 11.9952 9.1225 12.4381 9.82895C12.881 10.5354 13.1128 11.3537 13.1063 12.1875C13.1063 12.3533 13.1721 12.5122 13.2893 12.6294C13.4065 12.7467 13.5655 12.8125 13.7313 12.8125C13.897 12.8125 14.056 12.7467 14.1732 12.6294C14.2904 12.5122 14.3563 12.3533 14.3563 12.1875C14.3614 11.2284 14.1211 10.2839 13.6584 9.44379C13.1957 8.60367 12.5258 7.89582 11.7125 7.3875V7.3875Z" fill="black" fill-opacity="0.7"/>
</svg>
