<svg width="28" height="28" viewBox="0 0 28 28" fill="none" xmlns="http://www.w3.org/2000/svg">
<path fill-rule="evenodd" clip-rule="evenodd" d="M14.0002 4.08337C8.532 4.08337 4.0835 8.53187 4.0835 14C4.0835 19.4682 8.532 23.9167 14.0002 23.9167C19.4683 23.9167 23.9168 19.4682 23.9168 14C23.9168 8.53187 19.4683 4.08337 14.0002 4.08337M14.0002 25.6667C7.56716 25.6667 2.3335 20.433 2.3335 14C2.3335 7.56704 7.56716 2.33337 14.0002 2.33337C20.4332 2.33337 25.6668 7.56704 25.6668 14C25.6668 20.433 20.4332 25.6667 14.0002 25.6667" fill="#50C4CF"/>
<path fill-rule="evenodd" clip-rule="evenodd" d="M13.9932 15.6019C13.5102 15.6019 13.1182 15.2099 13.1182 14.7269V9.57141C13.1182 9.08841 13.5102 8.69641 13.9932 8.69641C14.4762 8.69641 14.8682 9.08841 14.8682 9.57141V14.7269C14.8682 15.2099 14.4762 15.6019 13.9932 15.6019" fill="#50C4CF"/>
<path fill-rule="evenodd" clip-rule="evenodd" d="M14.0045 19.5952C13.3594 19.5952 12.832 19.0737 12.832 18.4286C12.832 17.7834 13.3489 17.2619 13.9929 17.2619H14.0045C14.6497 17.2619 15.1712 17.7834 15.1712 18.4286C15.1712 19.0737 14.6497 19.5952 14.0045 19.5952" fill="#50C4CF"/>
</svg>
